<svg xmlns="http://www.w3.org/2000/svg" viewBox="0 0 100 100">
  <defs>
    <linearGradient id="grad" x1="0%" y1="0%" x2="100%" y2="100%">
      <stop offset="0%" style="stop-color:#2563eb;stop-opacity:1" />
      <stop offset="100%" style="stop-color:#059669;stop-opacity:1" />
    </linearGradient>
  </defs>
  
  <!-- Background circle -->
  <circle cx="50" cy="50" r="48" fill="url(#grad)" />
  
  <!-- Football/Soccer ball -->
  <g transform="translate(50, 50)">
    <!-- White ball base -->
    <circle cx="0" cy="0" r="28" fill="white" />
    
    <!-- Pentagon in center -->
    <path d="M 0,-12 L 11.4,-3.7 L 7,-12.8 L -7,-12.8 L -11.4,-3.7 Z" fill="#1f2937" />
    
    <!-- Hexagons around -->
    <path d="M 0,-12 L 7,-12.8 L 14,-8 L 11.4,-3.7 Z" fill="#e5e7eb" />
    <path d="M 11.4,-3.7 L 14,-8 L 16,2 L 11.4,8 L 7,3 Z" fill="#e5e7eb" />
    <path d="M 7,3 L 11.4,8 L 7,15 L 0,12 Z" fill="#e5e7eb" />
    <path d="M 0,12 L 7,15 L 0,18 L -7,15 Z" fill="#e5e7eb" />
    <path d="M -7,3 L 0,12 L -7,15 L -11.4,8 Z" fill="#e5e7eb" />
    <path d="M -11.4,-3.7 L -7,3 L -11.4,8 L -16,2 L -14,-8 Z" fill="#e5e7eb" />
  </g>
  
  <!-- Trophy icon overlay (small) -->
  <g transform="translate(72, 72) scale(0.4)">
    <path d="M 10,5 L 15,5 L 15,10 L 20,15 L 5,15 L 10,10 Z" fill="#fbbf24" stroke="#f59e0b" stroke-width="1" />
    <rect x="11" y="15" width="3" height="5" fill="#f59e0b" />
    <rect x="8" y="20" width="9" height="2" fill="#f59e0b" />
  </g>
</svg>
